#!OML:ASF E:\motion texture\Top Level 1\Subject 1\Session 1\male.ASF
:FULLY-SPECIFIED
:DEGREES
397
root -9.47453 18.0187 6.6498 182.836 -75.913 -177.637
lowerback -0.215207 -1.88716 -0.975482
upperback -1.68402 -2.5371 3.37044
thorax -1.41315 -1.25654 4.03798
lowerneck -14.1216 -8.49113 -10.6071
upperneck 8.68113 -10.3807 8.08799
head 5.90107 -4.87424 3.23462
rclavicle 2.33572e-015 -1.19271e-014
rhumerus -60.7503 -28.6827 -49.837
rradius 15.2627
rwrist 34.3985
rhand -4.20229 -26.5478
rfingers 7.12502
rthumb 21.5597 -415.368
lclavicle 2.33572e-015 -1.19271e-014
lhumerus -40.3321 22.901 70.7701
lradius 20.598
lwrist -33.3045
lhand -7.38092 19.9962
lfingers 7.12502
lthumb 18.5044 49.136
rfemur -30.6183 -6.72555 16.6405
rtibia 45.7812
rfoot -2.92518 -16.997
rtoes 11.4093
lfemur -4.93817 -3.95414 -22.0705
ltibia 14.1036
lfoot -10.443 1.10505
ltoes -0.647676
398
root -9.58777 18.0128 6.61529 183.295 -75.8383 -178.016
lowerback -0.170336 -2.02005 -1.03166
upperback -1.6366 -2.71576 3.43719
thorax -1.37021 -1.34642 4.14015
lowerneck -14.2837 -8.33011 -10.3936
upperneck 8.6184 -10.1743 8.01725
head 5.87353 -4.76837 3.19948
rclavicle -6.50523e-014 2.54444e-014
rhumerus -61.3808 -28.322 -49.2131
rradius 15.3634
rwrist 33.808
rhand -3.97904 -26.5427
rfingers 7.12502
rthumb 21.7741 -415.338
lclavicle -6.50523e-014 2.54444e-014
lhumerus -40.1174 22.4272 71.2972
lradius 20.7068
lwrist -33.1511
lhand -7.28419 19.9594
lfingers 7.12502
lthumb 18.5975 49.0904
rfemur -30.9859 -6.51949 16.4445
rtibia 44.1046
rfoot -3.19031 -17.0247
rtoes 11.5134
lfemur -4.51363 -3.91278 -22.1777
ltibia 13.9626
lfoot -10.7164 1.13002
ltoes -0.895258
399
root -9.70058 18.006 6.58004 183.742 -75.757 -178.379
lowerback -0.128024 -2.14766 -1.08528
upperback -1.59026 -2.88745 3.499
thorax -1.32711 -1.43293 4.23561
lowerneck -14.4408 -8.17126 -10.1852
upperneck 8.55811 -9.9724 7.9524
head 5.84753 -4.66463 3.16646
rclavicle 5.18331e-014 -6.36111e-015
rhumerus -61.8853 -27.9131 -48.7532
rradius 15.4961
rwrist 33.0656
rhand -3.79931 -26.6022
rfingers 7.12502
rthumb 21.9467 -415.377
lclavicle 5.18331e-014 -6.36111e-015
lhumerus -39.8877 21.9534 71.8055
lradius 20.8338
lwrist -32.9871
lhand -7.20992 19.9291
lfingers 7.12502
lthumb 18.6689 49.0532
rfemur -31.319 -6.28425 16.2511
rtibia 42.4112
rfoot -3.40674 -16.9859
rtoes 11.537
lfemur -4.10334 -3.87403 -22.2789
ltibia 13.8395
lfoot -10.988 1.16023
ltoes -1.16541
400
root -9.813 17.9986 6.54401 184.178 -75.6702 -178.728
lowerback -0.0876425 -2.26992 -1.13784
upperback -1.54608 -3.05199 3.55602
thorax -1.28533 -1.51592 4.32541
lowerneck -14.5901 -8.01512 -9.98359
upperneck 8.5001 -9.77549 7.89358
head 5.82263 -4.56342 3.13591
rclavicle 2.65378e-014 -7.95139e-016
rhumerus -62.2866 -27.488 -48.4093
rradius 15.6496
rwrist 32.2203
rhand -3.66391 -26.7182
rfingers 7.12502
rthumb 22.0767 -415.478
lclavicle 2.65378e-014 -7.95139e-016
lhumerus -39.6456 21.4844 72.2905
lradius 20.9762
lwrist -32.8157
lhand -7.15474 19.9097
lfingers 7.12502
lthumb 18.722 49.0287
rfemur -31.6182 -6.01911 16.0591
rtibia 40.7171
rfoot -3.58474 -16.8901
rtoes 11.4914
lfemur -3.7074 -3.83699 -22.3746
ltibia 13.7361
lfoot -11.2575 1.19402
ltoes -1.45615
401
root -9.92516 17.9905 6.50713 184.601 -75.579 -179.063
lowerback -0.0490957 -2.38677 -1.18898
upperback -1.50373 -3.20932 3.60799
thorax -1.24473 -1.59535 4.40909
lowerneck -14.732 -7.8624 -9.78867
upperneck 8.44581 -9.5843 7.83946
head 5.7993 -4.46514 3.10727
rclavicle -4.50744e-014 2.78299e-014
rhumerus -62.6035 -27.0728 -48.1422
rradius 15.8156
rwrist 31.3202
rhand -3.5718 -26.8804
rfingers 7.12502
rthumb 22.1651 -415.63
lclavicle -4.50744e-014 2.78299e-014
lhumerus -39.392 21.0249 72.7486
lradius 21.1327
lwrist -32.6364
lhand -7.11876 19.9023
lfingers 7.12502
lthumb 18.7566 49.018
rfemur -31.8827 -5.72426 15.8677
rtibia 39.0335
rfoot -3.72098 -16.744
rtoes 11.3908
lfemur -3.32497 -3.80158 -22.4647
ltibia 13.654
lfoot -11.5237 1.23012
ltoes -1.76827
402
root -10.0371 17.9819 6.46938 185.011 -75.4847 -179.383
lowerback -0.0135151 -2.49829 -1.23938
upperback -1.46327 -3.35955 3.65521
thorax -1.20477 -1.67126 4.48726
lowerneck -14.8676 -7.71366 -9.601
upperneck 8.39583 -9.39922 7.78952
head 5.77787 -4.36999 3.08039
rclavicle 6.26172e-015 2.14687e-014
rhumerus -62.8523 -26.6913 -47.9136
rradius 15.9854
rwrist 30.4136
rhand -3.52369 -27.0821
rfingers 7.12502
rthumb 22.2113 -415.826
lclavicle 6.26172e-015 2.14687e-014
lhumerus -39.1272 20.5807 73.1767
lradius 21.3003
lwrist -32.4571
lhand -7.10564 19.9066
lfingers 7.12502
lthumb 18.7692 49.0211
rfemur -32.1145 -5.40106 15.6756
rtibia 37.3682
rfoot -3.8095 -16.5545
rtoes 11.2468
lfemur -2.95608 -3.76966 -22.5497
ltibia 13.5934
lfoot -11.7866 1.27043
ltoes -2.10579
403
root -10.1488 17.9729 6.4307 185.396 -75.3862 -179.675
lowerback 0.0190347 -2.60451 -1.28589
upperback -1.42565 -3.50268 3.69913
thorax -1.16656 -1.74368 4.5597
lowerneck -14.9954 -7.56914 -9.42063
upperneck 8.34836 -9.22046 7.7433
head 5.75746 -4.27813 3.0552
rclavicle 1.26228e-014 7.15625e-015
rhumerus -63.0448 -26.3596 -47.693
rradius 16.1497
rwrist 29.5425
rhand -3.52106 -27.314
rfingers 7.12502
rthumb 22.2138 -416.058
lclavicle 1.26228e-014 7.15625e-015
lhumerus -38.8516 20.1583 73.5712
lradius 21.4736
lwrist -32.2809
lhand -7.10991 19.9236
lfingers 7.12502
lthumb 18.7651 49.0385
rfemur -32.3176 -5.04654 15.4871
rtibia 35.7337
rfoot -3.85651 -16.3376
rtoes 11.0573
lfemur -2.60169 -3.7416 -22.6248
ltibia 13.5549
lfoot -12.0451 1.3167
ltoes -2.47034
404
root -10.2606 17.9636 6.39116 185.767 -75.2884 -179.955
lowerback 0.0493841 -2.70515 -1.33084
upperback -1.38958 -3.63831 3.73774
thorax -1.12936 -1.81235 4.6256
lowerneck -15.1183 -7.42965 -9.24926
upperneck 8.30878 -9.04869 7.70086
head 5.74034 -4.18981 3.03176
rclavicle 9.29318e-015 1.51076e-014
rhumerus -63.1973 -26.1016 -47.444
rradius 16.2995
rwrist 28.7451
rhand -3.56788 -27.5615
rfingers 7.12502
rthumb 22.1689 -416.31
lclavicle 9.29318e-015 1.51076e-014
lhumerus -38.5639 19.7551 73.9344
lradius 21.6533
lwrist -32.1065
lhand -7.13121 19.9583
lfingers 7.12502
lthumb 18.7446 49.0752
rfemur -32.4877 -4.67177 15.2975
rtibia 34.1365
rfoot -3.86723 -16.1042
rtoes 10.8029
lfemur -2.25725 -3.72139 -22.697
ltibia 13.537
lfoot -12.2968 1.36758
ltoes -2.87414
405
root -10.3724 17.9542 6.3507 186.111 -75.1896 -180.205
lowerback 0.0774787 -2.7999 -1.37105
upperback -1.35616 -3.76603 3.77318
thorax -1.09444 -1.87709 4.68546
lowerneck -15.2358 -7.29554 -9.08721
upperneck 8.27546 -8.88409 7.66173
head 5.72586 -4.10519 3.01002
rclavicle -2.67365e-014 2.46493e-014
rhumerus -63.3186 -25.9305 -47.1412
rradius 16.428
rwrist 28.0505
rhand -3.66451 -27.8158
rfingers 7.12502
rthumb 22.0761 -416.576
lclavicle -2.67365e-014 2.46493e-014
lhumerus -38.2655 19.377 74.2642
lradius 21.8357
lwrist -31.9373
lhand -7.17362 20.0075
lfingers 7.12502
lthumb 18.7038 49.1283
rfemur -32.6294 -4.27357 15.1122
rtibia 32.5892
rfoot -3.8507 -15.8646
rtoes 10.4798
lfemur -1.92466 -3.70761 -22.7605
ltibia 13.5411
lfoot -12.5406 1.42395
ltoes -3.31154
406
root -10.4843 17.9447 6.30931 186.424 -75.0909 -180.426
lowerback 0.102882 -2.88865 -1.40646
upperback -1.32553 -3.8857 3.80611
thorax -1.06176 -1.93782 4.73991
lowerneck -15.3476 -7.16703 -8.9337
upperneck 8.24847 -8.72674 7.62338
head 5.71378 -4.02442 2.98907
rclavicle 4.17448e-014 -1.27222e-014
rhumerus -63.4067 -25.8406 -46.7943
rradius 16.5369
rwrist 27.4504
rhand -3.81665 -28.0909
rfingers 7.12502
rthumb 21.93 -416.868
lclavicle 4.17448e-014 -1.27222e-014
lhumerus -37.9564 19.0267 74.5613
lradius 22.0184
lwrist -31.7745
lhand -7.23645 20.0703
lfingers 7.12502
lthumb 18.6434 49.1969
rfemur -32.7448 -3.85484 14.9325
rtibia 31.1019
rfoot -3.80861 -15.6221
rtoes 10.1094
lfemur -1.60331 -3.69985 -22.8148
ltibia 13.5674
lfoot -12.775 1.48501
ltoes -3.7833
407
root -10.5965 17.9353 6.26699 186.711 -74.9938 -180.618
lowerback 0.124746 -2.97188 -1.43715
upperback -1.29806 -3.99793 3.83661
thorax -1.03123 -1.99483 4.78903
lowerneck -15.4521 -7.04436 -8.79024
upperneck 8.22676 -8.57673 7.58673
head 5.7036 -3.94757 2.96949
rclavicle -5.09883e-014 2.06736e-014
rhumerus -63.4604 -25.8247 -46.415
rradius 16.6285
rwrist 26.9383
rhand -4.02694 -28.3809
rfingers 7.12502
rthumb 21.7281 -417.181
lclavicle -5.09883e-014 2.06736e-014
lhumerus -37.6384 18.7084 74.8254
lradius 22.2
lwrist -31.6187
lhand -7.32087 20.1473
lfingers 7.12502
lthumb 18.5622 49.2817
rfemur -32.8354 -3.41982 14.7584
rtibia 29.6835
rfoot -3.73771 -15.3794
rtoes 9.71211
lfemur -1.29369 -3.69927 -22.8604
ltibia 13.6176
lfoot -12.9997 1.54956
ltoes -4.29111
